<svg width="92" height="92" viewBox="0 0 92 92" fill="none" xmlns="http://www.w3.org/2000/svg">
<g clip-path="url(#clip0_74_851)">
<path d="M67.5165 59.4782C73.0842 51.8807 75.578 42.461 74.4988 33.1038C73.4196 23.7466 68.8472 15.1419 61.6962 9.01121C54.5452 2.88051 45.3431 -0.324068 35.9308 0.0386027C26.5186 0.401273 17.5903 4.30444 10.9323 10.9672C4.27431 17.63 0.377526 26.5611 0.0215906 35.9736C-0.334345 45.3861 2.87681 54.5859 9.01263 61.7325C15.1484 68.8791 23.7564 73.4454 33.1144 74.5178C42.4724 75.5903 51.8902 73.0898 59.4838 67.5167H59.478C59.6467 67.7467 59.8345 67.9671 60.0415 68.178L82.179 90.3155C83.2572 91.3944 84.7198 92.0008 86.2451 92.0014C87.7704 92.0019 89.2335 91.3965 90.3124 90.3183C91.3913 89.2402 91.9978 87.7775 91.9983 86.2522C91.9989 84.7269 91.3935 83.2639 90.3153 82.185L68.1778 60.0475C67.9723 59.8393 67.7513 59.6528 67.5165 59.4782ZM69 37.3752C69 41.5283 68.182 45.6407 66.5927 49.4776C65.0034 53.3145 62.6739 56.8008 59.7373 59.7375C56.8006 62.6741 53.3143 65.0036 49.4774 66.5929C45.6405 68.1822 41.5281 69.0002 37.375 69.0002C33.222 69.0002 29.1096 68.1822 25.2727 66.5929C21.4358 65.0036 17.9494 62.6741 15.0128 59.7375C12.0761 56.8008 9.74665 53.3145 8.15735 49.4776C6.56804 45.6407 5.75004 41.5283 5.75004 37.3752C5.75004 28.9877 9.08195 20.9438 15.0128 15.013C20.9436 9.08212 28.9876 5.75021 37.375 5.75021C45.7625 5.75021 53.8064 9.08212 59.7373 15.013C65.6681 20.9438 69 28.9877 69 37.3752Z" fill="#1A1A1A"/>
</g>
<defs>
<clipPath id="clip0_74_851">
<rect width="92" height="92" fill="white"/>
</clipPath>
</defs>
</svg>
