<svg width="64" height="64" viewBox="0 0 64 64" fill="none" xmlns="http://www.w3.org/2000/svg">
<path d="M8.58408 11.416C8.39813 11.23 8.25063 11.0093 8.14999 10.7663C8.04936 10.5233 7.99756 10.2629 7.99756 9.99996C7.99756 9.73699 8.04936 9.47659 8.14999 9.23363C8.25063 8.99067 8.39813 8.76991 8.58408 8.58396C8.77004 8.39801 8.99079 8.25051 9.23375 8.14987C9.47671 8.04923 9.73711 7.99744 10.0001 7.99744C10.2631 7.99744 10.5235 8.04923 10.7664 8.14987C11.0094 8.25051 11.2301 8.39801 11.4161 8.58396L32.0001 29.172L52.5841 8.58396C52.77 8.39801 52.9908 8.25051 53.2337 8.14987C53.4767 8.04923 53.7371 7.99744 54.0001 7.99744C54.2631 7.99744 54.5235 8.04923 54.7664 8.14987C55.0094 8.25051 55.2301 8.39801 55.4161 8.58396C55.602 8.76991 55.7495 8.99067 55.8502 9.23363C55.9508 9.47659 56.0026 9.73699 56.0026 9.99996C56.0026 10.2629 55.9508 10.5233 55.8502 10.7663C55.7495 11.0093 55.602 11.23 55.4161 11.416L34.8281 32L55.4161 52.584C55.602 52.7699 55.7495 52.9907 55.8502 53.2336C55.9508 53.4766 56.0026 53.737 56.0026 54C56.0026 54.2629 55.9508 54.5233 55.8502 54.7663C55.7495 55.0093 55.602 55.23 55.4161 55.416C55.2301 55.6019 55.0094 55.7494 54.7664 55.8501C54.5235 55.9507 54.2631 56.0025 54.0001 56.0025C53.7371 56.0025 53.4767 55.9507 53.2337 55.8501C52.9908 55.7494 52.77 55.6019 52.5841 55.416L32.0001 34.828L11.4161 55.416C11.2301 55.6019 11.0094 55.7494 10.7664 55.8501C10.5235 55.9507 10.2631 56.0025 10.0001 56.0025C9.73711 56.0025 9.47671 55.9507 9.23375 55.8501C8.99079 55.7494 8.77004 55.6019 8.58408 55.416C8.39813 55.23 8.25063 55.0093 8.14999 54.7663C8.04936 54.5233 7.99756 54.2629 7.99756 54C7.99756 53.737 8.04936 53.4766 8.14999 53.2336C8.25063 52.9907 8.39813 52.7699 8.58408 52.584L29.1721 32L8.58408 11.416Z" fill="white"/>
</svg>
