<svg width="94" height="94" viewBox="0 0 94 94" fill="none" xmlns="http://www.w3.org/2000/svg">
<path d="M24.3577 0.857755C24.631 0.585144 24.9554 0.369073 25.3123 0.221894C25.6691 0.0747153 26.0515 -0.000684729 26.4375 4.68527e-06H67.5625C68.3416 4.68527e-06 69.0887 0.30949 69.6396 0.860379C70.1905 1.41127 70.5 2.15843 70.5 2.9375C70.5 6.9325 68.4908 9.83475 66.7048 11.6266C65.9645 12.361 65.236 12.9426 64.625 13.3774V39.4095L65.0833 39.6915C66.2759 40.4376 67.8798 41.5363 69.4954 42.9521C72.615 45.6781 76.375 50.0961 76.375 55.8125C76.375 56.5916 76.0655 57.3387 75.5146 57.8896C74.9637 58.4405 74.2166 58.75 73.4375 58.75H49.9375V85.1875C49.9375 86.809 48.6215 94 47 94C45.3785 94 44.0625 86.809 44.0625 85.1875V58.75H20.5625C19.7834 58.75 19.0363 58.4405 18.4854 57.8896C17.9345 57.3387 17.625 56.5916 17.625 55.8125C17.625 50.0961 21.385 45.6781 24.4988 42.9521C26.02 41.6342 27.6514 40.449 29.375 39.4095V13.3774C28.6377 12.8482 27.9424 12.2629 27.2952 11.6266C25.5092 9.83475 23.5 6.92663 23.5 2.9375C23.4993 2.55149 23.5747 2.16912 23.7219 1.81226C23.8691 1.4554 24.0851 1.13105 24.3577 0.857755ZM33.6285 9.12388L33.6402 9.12976C34.1245 9.37512 34.5312 9.74987 34.8154 10.2124C35.0996 10.6749 35.25 11.2072 35.25 11.75V41.125C35.25 41.6701 35.0983 42.2044 34.8119 42.6682C34.5256 43.132 34.1158 43.5069 33.6285 43.7511H33.6168L33.5463 43.7923L33.229 43.9685C31.4986 44.9374 29.8707 46.0791 28.3704 47.376C26.5021 49.0093 24.9335 50.8775 24.111 52.875H69.889C69.0665 50.8775 67.4979 49.0093 65.6296 47.376C64.0377 45.9995 62.3024 44.798 60.4537 43.7923L60.3832 43.757H60.3715C59.8833 43.5124 59.4729 43.1365 59.1865 42.6716C58.9001 42.2066 58.7489 41.6711 58.75 41.125V11.75C58.7478 11.1819 58.9103 10.6254 59.2179 10.1479C59.5255 9.67029 59.965 9.29216 60.4831 9.05926C61.2335 8.61557 61.9261 8.0808 62.5452 7.46713C63.0152 6.99713 63.4559 6.46838 63.8025 5.875H30.1975C30.5539 6.4625 30.973 6.99321 31.4548 7.46713C32.1046 8.11108 32.8353 8.66798 33.6285 9.12388Z" fill="#1A1A1A"/>
</svg>
