<svg width="78" height="78" viewBox="0 0 78 78" fill="none" xmlns="http://www.w3.org/2000/svg">
<path fill-rule="evenodd" clip-rule="evenodd" d="M15.1125 54.599C15.3395 54.2963 15.634 54.0506 15.9724 53.8814C16.3109 53.7121 16.6841 53.624 17.0625 53.624H29.25C29.8965 53.624 30.5165 53.8808 30.9736 54.338C31.4307 54.7951 31.6875 55.4151 31.6875 56.0616C31.6875 56.708 31.4307 57.328 30.9736 57.7852C30.5165 58.2423 29.8965 58.4991 29.25 58.4991H18.2813L7.3125 73.1244H70.6875L59.7188 58.4991H48.75C48.1035 58.4991 47.4835 58.2423 47.0264 57.7852C46.5693 57.328 46.3125 56.708 46.3125 56.0616C46.3125 55.4151 46.5693 54.7951 47.0264 54.338C47.4835 53.8808 48.1035 53.624 48.75 53.624H60.9375C61.3159 53.624 61.6891 53.7121 62.0276 53.8814C62.366 54.0506 62.6605 54.2963 62.8875 54.599L77.5125 74.0994C77.7841 74.4615 77.9495 74.8921 77.9902 75.343C78.0308 75.7938 77.9451 76.2471 77.7427 76.652C77.5402 77.0569 77.229 77.3974 76.844 77.6354C76.4589 77.8734 76.0152 77.9994 75.5625 77.9994H2.4375C1.98483 77.9994 1.5411 77.8734 1.15603 77.6354C0.770965 77.3974 0.459776 77.0569 0.257335 76.652C0.0548934 76.2471 -0.0308022 75.7938 0.00985033 75.343C0.0505029 74.8921 0.215897 74.4615 0.487501 74.0994L15.1125 54.599Z" fill="#1A1A1A"/>
<path fill-rule="evenodd" clip-rule="evenodd" d="M39 4.87328C37.0794 4.87328 35.1776 5.25157 33.4033 5.98656C31.6289 6.72154 30.0166 7.79883 28.6586 9.15691C27.3005 10.515 26.2232 12.1273 25.4883 13.9017C24.7533 15.6761 24.375 17.5779 24.375 19.4985C24.375 21.4191 24.7533 23.3209 25.4883 25.0954C26.2232 26.8698 27.3005 28.4821 28.6586 29.8401C30.0166 31.1982 31.6289 32.2755 33.4033 33.0105C35.1776 33.7455 37.0794 34.1238 39 34.1238C42.8788 34.1238 46.5987 32.5829 49.3414 29.8401C52.0842 27.0974 53.625 23.3774 53.625 19.4985C53.625 15.6197 52.0842 11.8997 49.3414 9.15691C46.5987 6.41415 42.8788 4.87328 39 4.87328ZM19.5 19.4985C19.5004 15.7458 20.5835 12.0729 22.6195 8.92053C24.6555 5.76815 27.5578 3.27021 30.9782 1.72644C34.3986 0.182673 38.1918 -0.341346 41.9027 0.217263C45.6135 0.775872 49.0844 2.39338 51.8987 4.8757C54.7131 7.35801 56.7514 10.5997 57.7692 14.2118C58.7869 17.8238 58.7408 21.6528 57.6364 25.2394C56.532 28.8259 54.4162 32.0175 51.5428 34.4314C48.6695 36.8452 45.1607 38.3786 41.4375 38.8477V65.8118C41.4375 66.4583 41.1807 67.0783 40.7236 67.5354C40.2665 67.9925 39.6465 68.2493 39 68.2493C38.3535 68.2493 37.7336 67.9925 37.2764 67.5354C36.8193 67.0783 36.5625 66.4583 36.5625 65.8118V38.8526C31.8482 38.2586 27.513 35.9638 24.3712 32.3991C21.2294 28.8345 19.4972 24.2502 19.5 19.4985Z" fill="#1A1A1A"/>
</svg>
