<svg width="100" height="100" viewBox="0 0 100 100" fill="none" xmlns="http://www.w3.org/2000/svg">
<path d="M37.5 81.25C37.5 88.1563 30.5 93.75 21.875 93.75C13.25 93.75 6.25 88.1563 6.25 81.25C6.25 74.3437 13.25 68.75 21.875 68.75C30.5 68.75 37.5 74.35 37.5 81.25ZM93.75 68.75C93.75 75.6563 86.75 81.25 78.125 81.25C69.5 81.25 62.5 75.6563 62.5 68.75C62.5 61.8437 69.5 56.25 78.125 56.25C86.75 56.25 93.75 61.8437 93.75 68.75Z" fill="#1A1A1A"/>
<path fill-rule="evenodd" clip-rule="evenodd" d="M87.5 68.75V12.5H93.75V68.75H87.5ZM37.5 18.75V81.25H31.25V18.75H37.5Z" fill="#1A1A1A"/>
<path d="M31.25 18.1563C31.25 16.6069 31.8255 15.1127 32.8649 13.9636C33.9042 12.8145 35.3334 12.0925 36.875 11.9375L86.875 6.93752C87.7441 6.85017 88.6219 6.94596 89.4517 7.21872C90.2815 7.49148 91.0449 7.93514 91.6927 8.52109C92.3404 9.10704 92.8582 9.82227 93.2126 10.6206C93.5669 11.419 93.75 12.2828 93.75 13.1563V18.75L31.25 25V18.1563Z" fill="#1A1A1A"/>
</svg>
